<svg width="136" height="24" viewBox="0 0 136 24" fill="none" xmlns="http://www.w3.org/2000/svg">
<path d="M22.6667 11.1867C22.9145 11.0021 23.0982 10.7446 23.1923 10.4503C23.2863 10.156 23.2859 9.83962 23.1911 9.54556C23.0962 9.2515 22.9118 8.9945 22.6635 8.81058C22.4152 8.62667 22.1156 8.52506 21.8067 8.52002L15.8067 8.29335C15.7772 8.29131 15.7489 8.28079 15.7252 8.26305C15.7016 8.24531 15.6836 8.2211 15.6733 8.19335L13.6 2.59335C13.4958 2.30844 13.3066 2.06243 13.058 1.88861C12.8094 1.7148 12.5134 1.62158 12.21 1.62158C11.9067 1.62158 11.6106 1.7148 11.362 1.88861C11.1134 2.06243 10.9242 2.30844 10.82 2.59335L8.75335 8.21335C8.74313 8.2411 8.72511 8.26531 8.70145 8.28305C8.6778 8.30079 8.64952 8.31131 8.62002 8.31335L2.62002 8.54002C2.31109 8.54506 2.01148 8.64667 1.76321 8.83058C1.51494 9.0145 1.33046 9.2715 1.23562 9.56556C1.14079 9.85962 1.14036 10.176 1.23441 10.4703C1.32845 10.7646 1.51224 11.0221 1.76002 11.2067L6.46668 14.9067C6.49024 14.9252 6.50784 14.9503 6.51732 14.9787C6.5268 15.0071 6.52774 15.0377 6.52001 15.0667L4.90002 20.8067C4.81607 21.099 4.8242 21.41 4.92331 21.6975C5.02242 21.9851 5.20769 22.2351 5.45391 22.4135C5.70014 22.592 5.99538 22.6903 6.29945 22.6951C6.60353 22.6998 6.90168 22.6107 7.15335 22.44L12.1267 19.1067C12.1512 19.0898 12.1802 19.0807 12.21 19.0807C12.2398 19.0807 12.2689 19.0898 12.2933 19.1067L17.2667 22.44C17.5149 22.6166 17.812 22.7114 18.1167 22.7114C18.4213 22.7114 18.7184 22.6166 18.9667 22.44C19.213 22.2632 19.3984 22.0144 19.4975 21.7279C19.5966 21.4414 19.6045 21.1312 19.52 20.84L17.8867 15.08C17.878 15.0511 17.8785 15.0202 17.888 14.9916C17.8976 14.963 17.9157 14.938 17.94 14.92L22.6667 11.1867Z" fill="#FFA800" fill-opacity="0.8"/>
<path d="M50.6667 11.1867C50.9145 11.0021 51.0982 10.7446 51.1923 10.4503C51.2863 10.156 51.2859 9.83962 51.1911 9.54556C51.0962 9.2515 50.9118 8.9945 50.6635 8.81058C50.4152 8.62667 50.1156 8.52506 49.8067 8.52002L43.8067 8.29335C43.7772 8.29131 43.7489 8.28079 43.7252 8.26305C43.7016 8.24531 43.6836 8.2211 43.6733 8.19335L41.6 2.59335C41.4958 2.30844 41.3066 2.06243 41.058 1.88861C40.8094 1.7148 40.5134 1.62158 40.21 1.62158C39.9067 1.62158 39.6106 1.7148 39.362 1.88861C39.1134 2.06243 38.9242 2.30844 38.82 2.59335L36.7533 8.21335C36.7431 8.2411 36.7251 8.26531 36.7015 8.28305C36.6778 8.30079 36.6495 8.31131 36.62 8.31335L30.62 8.54002C30.3111 8.54506 30.0115 8.64667 29.7632 8.83058C29.5149 9.0145 29.3305 9.2715 29.2356 9.56556C29.1408 9.85962 29.1404 10.176 29.2344 10.4703C29.3284 10.7646 29.5122 11.0221 29.76 11.2067L34.4667 14.9067C34.4902 14.9252 34.5078 14.9503 34.5173 14.9787C34.5268 15.0071 34.5277 15.0377 34.52 15.0667L32.9 20.8067C32.8161 21.099 32.8242 21.41 32.9233 21.6975C33.0224 21.9851 33.2077 22.2351 33.4539 22.4135C33.7001 22.592 33.9954 22.6903 34.2995 22.6951C34.6035 22.6998 34.9017 22.6107 35.1533 22.44L40.1267 19.1067C40.1512 19.0898 40.1802 19.0807 40.21 19.0807C40.2398 19.0807 40.2689 19.0898 40.2933 19.1067L45.2667 22.44C45.5149 22.6166 45.812 22.7114 46.1167 22.7114C46.4213 22.7114 46.7184 22.6166 46.9667 22.44C47.213 22.2632 47.3984 22.0144 47.4975 21.7279C47.5966 21.4414 47.6045 21.1312 47.52 20.84L45.8867 15.08C45.878 15.0511 45.8785 15.0202 45.888 14.9916C45.8976 14.963 45.9157 14.938 45.94 14.92L50.6667 11.1867Z" fill="#FFA800" fill-opacity="0.8"/>
<path d="M78.6667 11.1867C78.9145 11.0021 79.0982 10.7446 79.1923 10.4503C79.2863 10.156 79.2859 9.83962 79.1911 9.54556C79.0962 9.2515 78.9118 8.9945 78.6635 8.81058C78.4152 8.62667 78.1156 8.52506 77.8067 8.52002L71.8067 8.29335C71.7772 8.29131 71.7489 8.28079 71.7252 8.26305C71.7016 8.24531 71.6836 8.2211 71.6733 8.19335L69.6 2.59335C69.4958 2.30844 69.3066 2.06243 69.058 1.88861C68.8094 1.7148 68.5134 1.62158 68.21 1.62158C67.9067 1.62158 67.6106 1.7148 67.362 1.88861C67.1134 2.06243 66.9242 2.30844 66.82 2.59335L64.7533 8.21335C64.7431 8.2411 64.7251 8.26531 64.7015 8.28305C64.6778 8.30079 64.6495 8.31131 64.62 8.31335L58.62 8.54002C58.3111 8.54506 58.0115 8.64667 57.7632 8.83058C57.5149 9.0145 57.3305 9.2715 57.2356 9.56556C57.1408 9.85962 57.1404 10.176 57.2344 10.4703C57.3284 10.7646 57.5122 11.0221 57.76 11.2067L62.4667 14.9067C62.4902 14.9252 62.5078 14.9503 62.5173 14.9787C62.5268 15.0071 62.5277 15.0377 62.52 15.0667L60.9 20.8067C60.8161 21.099 60.8242 21.41 60.9233 21.6975C61.0224 21.9851 61.2077 22.2351 61.4539 22.4135C61.7001 22.592 61.9954 22.6903 62.2995 22.6951C62.6035 22.6998 62.9017 22.6107 63.1533 22.44L68.1267 19.1067C68.1512 19.0898 68.1802 19.0807 68.21 19.0807C68.2398 19.0807 68.2689 19.0898 68.2933 19.1067L73.2667 22.44C73.5149 22.6166 73.812 22.7114 74.1167 22.7114C74.4213 22.7114 74.7184 22.6166 74.9667 22.44C75.213 22.2632 75.3984 22.0144 75.4975 21.7279C75.5966 21.4414 75.6045 21.1312 75.52 20.84L73.8867 15.08C73.878 15.0511 73.8785 15.0202 73.888 14.9916C73.8976 14.963 73.9157 14.938 73.94 14.92L78.6667 11.1867Z" fill="#FFA800" fill-opacity="0.8"/>
<path d="M106.667 11.1867C106.914 11.0021 107.098 10.7446 107.192 10.4503C107.286 10.156 107.286 9.83962 107.191 9.54556C107.096 9.2515 106.912 8.9945 106.663 8.81058C106.415 8.62667 106.116 8.52506 105.807 8.52002L99.8067 8.29335C99.7772 8.29131 99.7489 8.28079 99.7252 8.26305C99.7016 8.24531 99.6836 8.2211 99.6733 8.19335L97.6 2.59335C97.4958 2.30844 97.3066 2.06243 97.058 1.88861C96.8094 1.7148 96.5134 1.62158 96.21 1.62158C95.9067 1.62158 95.6106 1.7148 95.362 1.88861C95.1134 2.06243 94.9242 2.30844 94.82 2.59335L92.7533 8.21335C92.7431 8.2411 92.7251 8.26531 92.7015 8.28305C92.6778 8.30079 92.6495 8.31131 92.62 8.31335L86.62 8.54002C86.3111 8.54506 86.0115 8.64667 85.7632 8.83058C85.5149 9.0145 85.3305 9.2715 85.2356 9.56556C85.1408 9.85962 85.1404 10.176 85.2344 10.4703C85.3284 10.7646 85.5122 11.0221 85.76 11.2067L90.4667 14.9067C90.4902 14.9252 90.5078 14.9503 90.5173 14.9787C90.5268 15.0071 90.5277 15.0377 90.52 15.0667L88.9 20.8067C88.8161 21.099 88.8242 21.41 88.9233 21.6975C89.0224 21.9851 89.2077 22.2351 89.4539 22.4135C89.7001 22.592 89.9954 22.6903 90.2995 22.6951C90.6035 22.6998 90.9017 22.6107 91.1533 22.44L96.1267 19.1067C96.1512 19.0898 96.1802 19.0807 96.21 19.0807C96.2398 19.0807 96.2689 19.0898 96.2933 19.1067L101.267 22.44C101.515 22.6166 101.812 22.7114 102.117 22.7114C102.421 22.7114 102.718 22.6166 102.967 22.44C103.213 22.2632 103.398 22.0144 103.498 21.7279C103.597 21.4414 103.604 21.1312 103.52 20.84L101.887 15.08C101.878 15.0511 101.879 15.0202 101.888 14.9916C101.898 14.963 101.916 14.938 101.94 14.92L106.667 11.1867Z" fill="#FFA800" fill-opacity="0.8"/>
<path d="M134.667 11.1867C134.914 11.0021 135.098 10.7446 135.192 10.4503C135.286 10.156 135.286 9.83962 135.191 9.54556C135.096 9.2515 134.912 8.9945 134.663 8.81058C134.415 8.62667 134.116 8.52506 133.807 8.52002L127.807 8.29335C127.777 8.29131 127.749 8.28079 127.725 8.26305C127.702 8.24531 127.684 8.2211 127.673 8.19335L125.6 2.59335C125.496 2.30844 125.307 2.06243 125.058 1.88861C124.809 1.7148 124.513 1.62158 124.21 1.62158C123.907 1.62158 123.611 1.7148 123.362 1.88861C123.113 2.06243 122.924 2.30844 122.82 2.59335L120.753 8.21335C120.743 8.2411 120.725 8.26531 120.701 8.28305C120.678 8.30079 120.65 8.31131 120.62 8.31335L114.62 8.54002C114.311 8.54506 114.011 8.64667 113.763 8.83058C113.515 9.0145 113.33 9.2715 113.236 9.56556C113.141 9.85962 113.14 10.176 113.234 10.4703C113.328 10.7646 113.512 11.0221 113.76 11.2067L118.467 14.9067C118.49 14.9252 118.508 14.9503 118.517 14.9787C118.527 15.0071 118.528 15.0377 118.52 15.0667L116.9 20.8067C116.816 21.099 116.824 21.41 116.923 21.6975C117.022 21.9851 117.208 22.2351 117.454 22.4135C117.7 22.592 117.995 22.6903 118.299 22.6951C118.604 22.6998 118.902 22.6107 119.153 22.44L124.127 19.1067C124.151 19.0898 124.18 19.0807 124.21 19.0807C124.24 19.0807 124.269 19.0898 124.293 19.1067L129.267 22.44C129.515 22.6166 129.812 22.7114 130.117 22.7114C130.421 22.7114 130.718 22.6166 130.967 22.44C131.213 22.2632 131.398 22.0144 131.498 21.7279C131.597 21.4414 131.604 21.1312 131.52 20.84L129.887 15.08C129.878 15.0511 129.879 15.0202 129.888 14.9916C129.898 14.963 129.916 14.938 129.94 14.92L134.667 11.1867Z" fill="#FFA800" fill-opacity="0.8"/>
</svg>
