<svg width="36" height="40" viewBox="0 0 36 40" fill="none" xmlns="http://www.w3.org/2000/svg">
<g filter="url(#filter0_d_1_165)">
<path d="M29.7658 4.01186C29.6683 4.08999 29.5668 4.16403 29.4731 4.24215C29.3289 4.37091 29.1454 4.43733 28.9619 4.43733C28.7433 4.43733 28.5288 4.34368 28.3726 4.16811C28.0917 3.84418 28.1227 3.34846 28.4507 3.06756C28.5912 2.94261 28.7474 2.82964 28.8996 2.71232C28.1346 1.69372 27.2255 0.776651 26.1914 0H9.80888C8.77091 0.776651 7.86555 1.69372 7.10068 2.71232C7.25284 2.82556 7.40501 2.94261 7.54955 3.06756C7.87348 3.34848 7.90859 3.84038 7.62768 4.16811C7.4717 4.34368 7.25311 4.43733 7.03453 4.43733C6.85514 4.43733 6.67167 4.37091 6.52332 4.24215C6.42967 4.16403 6.33223 4.08999 6.2345 4.01186C5.01284 6.08391 4.34155 8.46849 4.34155 10.9268C4.34155 14.0213 5.35611 16.9443 7.2722 19.3755C7.30732 19.4186 7.33454 19.4654 7.35795 19.5122H10.3863C9.91809 18.9931 9.47306 18.4233 9.05167 17.803C8.80967 17.4478 8.90331 16.9599 9.25855 16.7183C9.6176 16.4763 10.1016 16.5699 10.3433 16.929C10.4448 17.0773 10.5502 17.2216 10.6555 17.3661C12.6807 20.137 15.2719 21.6589 17.9997 21.6589C20.7276 21.6589 23.3187 20.137 25.3439 17.3661C25.4493 17.2219 25.5508 17.0773 25.6562 16.929C25.8982 16.5699 26.3819 16.4763 26.7371 16.7183C27.0962 16.9603 27.1898 17.4481 26.9478 17.803C26.5264 18.4234 26.0776 18.9931 25.6094 19.5122H28.6415C28.665 19.4654 28.6922 19.4185 28.7273 19.3755C30.6439 16.9444 31.6584 14.0217 31.6584 10.9268C31.6584 8.46849 30.9833 6.08391 29.7658 4.01186ZM8.6028 5.39332C8.98145 5.19052 9.45346 5.33479 9.66036 5.71344C9.79292 5.96333 9.91405 6.22084 10.0273 6.48215C10.195 6.88012 10.0077 7.33692 9.61353 7.50458C9.512 7.54759 9.41073 7.56692 9.3092 7.56692C9.00487 7.56692 8.71605 7.38753 8.58732 7.09082C8.49749 6.87632 8.39215 6.65774 8.28299 6.45085C8.07992 6.07221 8.22035 5.5961 8.6028 5.39332ZM10.0232 13.8769L9.77332 14.6184C9.66417 14.9424 9.35956 15.1492 9.03563 15.1492C8.94988 15.1492 8.86795 15.1337 8.78193 15.1062C8.37606 14.9696 8.15748 14.5248 8.29413 14.1151L8.54401 13.3774C8.68447 12.9677 9.12546 12.7491 9.53516 12.8896C9.94129 13.0262 10.1637 13.471 10.0232 13.8769ZM10.7568 10.6379C10.7334 11.0555 10.3899 11.3756 9.97638 11.3756H9.93337C9.50409 11.3522 9.17637 10.9852 9.19979 10.5559C9.20768 10.4155 9.21149 10.275 9.21149 10.1346C9.21149 10.0371 9.20768 9.94346 9.2036 9.84574C9.18808 9.41265 9.52372 9.05362 9.953 9.03404C10.3823 9.01446 10.7492 9.35416 10.7647 9.78727C10.7685 9.90051 10.7726 10.0176 10.7726 10.1346C10.7726 10.3023 10.7647 10.4702 10.7568 10.6379ZM18 18.3417C17.5669 18.3417 17.2196 17.9905 17.2196 17.5613C17.2196 17.491 17.2313 17.4287 17.2468 17.3661C17.3325 17.0305 17.6371 16.7808 18 16.7808C18.3629 16.7808 18.6672 17.0307 18.7532 17.3661C18.7688 17.4284 18.7805 17.4908 18.7805 17.561C18.7805 17.9903 18.4293 18.3417 18.0001 18.3417L18 18.3417ZM25.2431 10.6379C25.2314 10.4702 25.2276 10.3023 25.2276 10.1346C25.2276 10.0175 25.2314 9.90047 25.2355 9.78341C25.251 9.35413 25.6063 9.0223 26.0472 9.03401C26.4765 9.05361 26.8122 9.41647 26.7966 9.84571C26.7928 9.94316 26.7887 10.0368 26.7887 10.1345C26.7887 10.275 26.7925 10.4154 26.8004 10.5559C26.8238 10.9852 26.4961 11.3521 26.0627 11.3756H26.0197C25.6098 11.3756 25.2625 11.0555 25.2431 10.6379ZM27.2136 15.1062C27.1317 15.1334 27.046 15.1492 26.9638 15.1492C26.6398 15.1492 26.3355 14.9424 26.2261 14.6184L25.9762 13.8769C25.8357 13.471 26.0543 13.0262 26.464 12.8896C26.8698 12.7491 27.3146 12.9677 27.4551 13.3774L27.705 14.1189C27.8419 14.5248 27.6236 14.9696 27.2136 15.1062ZM27.7172 6.45052C27.604 6.65741 27.5027 6.87599 27.4088 7.09049C27.2839 7.3872 26.9951 7.56659 26.6907 7.56659C26.5892 7.56659 26.4879 7.54699 26.3864 7.50425C25.9884 7.33657 25.8049 6.87599 25.9726 6.48182C26.0818 6.22022 26.2067 5.96271 26.3396 5.71311C26.5424 5.33447 27.0146 5.19019 27.3971 5.39299C27.7758 5.59579 27.92 6.07186 27.7172 6.45052Z" fill="white"/>
<path d="M17.9999 23.2194C15.8848 23.2194 13.8555 22.4741 12.0526 21.073H7.3891C7.38529 21.8107 7.43973 22.5443 7.56087 23.2545L7.57638 23.3365C7.58019 23.3637 7.58809 23.3912 7.5919 23.4184C9.59377 23.4301 11.2757 23.7385 12.6768 24.195C15.4787 25.1083 17.1607 26.6185 17.9997 27.5862C18.8386 26.6185 20.5206 25.1083 23.3225 24.195C24.7235 23.7385 26.4053 23.4301 28.4074 23.4184C28.4112 23.3912 28.4153 23.3637 28.4229 23.3403L28.4346 23.2545C28.5596 22.5443 28.614 21.8107 28.6102 21.073H23.9434C22.1444 22.4738 20.115 23.2194 17.9999 23.2194Z" fill="white"/>
<path d="M18.7804 29.112V31.9999H25.5198C25.7267 31.4536 25.9453 30.9034 26.1677 30.3454C26.8661 28.5931 27.5764 26.7903 28.0565 24.9834C21.8944 25.1432 19.3109 28.3471 18.7806 29.112H18.7804Z" fill="white"/>
<path d="M7.9436 24.9832C8.42351 26.7901 9.1337 28.593 9.83244 30.349C10.051 30.9032 10.2696 31.4571 10.4803 31.9997L17.2197 32V29.1121C16.6927 28.351 14.1094 25.1433 7.94381 24.9832L7.9436 24.9832Z" fill="white"/>
</g>
<defs>
<filter id="filter0_d_1_165" x="0.341553" y="0" width="35.3169" height="40" filterUnits="userSpaceOnUse" color-interpolation-filters="sRGB">
<feFlood flood-opacity="0" result="BackgroundImageFix"/>
<feColorMatrix in="SourceAlpha" type="matrix" values="0 0 0 0 0 0 0 0 0 0 0 0 0 0 0 0 0 0 127 0" result="hardAlpha"/>
<feOffset dy="4"/>
<feGaussianBlur stdDeviation="2"/>
<feComposite in2="hardAlpha" operator="out"/>
<feColorMatrix type="matrix" values="0 0 0 0 0 0 0 0 0 0 0 0 0 0 0 0 0 0 0.25 0"/>
<feBlend mode="normal" in2="BackgroundImageFix" result="effect1_dropShadow_1_165"/>
<feBlend mode="normal" in="SourceGraphic" in2="effect1_dropShadow_1_165" result="shape"/>
</filter>
</defs>
</svg>
