<svg width="28" height="32" viewBox="0 0 28 32" fill="none" xmlns="http://www.w3.org/2000/svg">
<path d="M24.8891 13.1669C24.0324 11.3412 23.1471 9.45379 22.7091 7.34166C22.6755 6.97183 22.274 2.92859 20.6292 0.949455C20.4204 0.698513 19.9554 0.672197 19.0291 0.619331C18.0333 0.56247 16.6696 0.484931 15.1722 0.0899577C14.4807 -0.0926114 13.8994 0.00302204 13.4438 0.374031C12.6626 1.01006 12.3249 2.41584 12.4405 4.55143L12.4457 4.64424C12.4483 4.67714 12.4513 4.70956 12.456 4.73799C12.5371 5.25562 12.7502 5.74317 13.0723 6.14798L13.0751 6.15151C13.237 6.35428 13.4772 6.47998 13.7363 6.49291C14.2166 6.51711 14.9654 6.51053 15.7032 6.32632C16.0841 6.23116 16.4011 5.95414 16.5514 5.58551C16.6957 5.23165 16.6243 4.8705 16.4734 4.53263C16.3879 4.34067 16.2993 4.26524 16.2342 4.28663C15.5211 4.5223 15.0418 4.53122 15.0049 4.52746C14.8352 4.52253 14.7018 4.38108 14.7067 4.21121C14.7114 4.04156 14.8545 3.90153 15.023 3.91304C15.023 3.91304 15.2908 3.91069 15.8938 3.71144C16.1409 3.6292 16.6132 3.58549 16.9972 4.21074C17.2946 4.69476 17.3397 5.28051 17.1205 5.81766C16.8964 6.367 16.4225 6.78007 15.8522 6.92269C15.2361 7.07659 14.6228 7.11888 14.1343 7.11888C14.0928 7.11888 14.0523 7.11864 14.0129 7.11794C13.6632 7.11418 13.4342 7.48237 13.5916 7.79439L13.7758 8.15952C14.2307 9.0613 14.855 9.57751 15.8634 9.52374C18.3465 9.39122 18.3869 9.55734 18.5756 10.5844C19.1886 13.9239 18.9868 16.7023 18.6905 18.2434C18.4913 19.2793 18.3026 20.2685 18.4097 21.581C15.1299 18.92 11.3409 19.9854 9.85633 21.0885C6.00014 17.9294 1.95615 19.2483 0.809082 19.726V30.6938C2.064 31.5834 3.52735 31.809 4.88874 31.8715C7.58258 31.9955 9.59925 30.8966 9.86175 30.7662C11.261 31.585 12.8293 32 14.5636 32C16.1433 31.9998 17.8594 31.6595 19.7046 30.9782C20.3489 30.7401 20.8404 30.4676 21.2356 30.2486C21.7041 29.989 22.0427 29.801 22.3787 29.8001C23.2392 29.7949 24.0639 29.5045 24.7007 28.9821C25.2563 28.5261 25.4878 28.1099 25.5265 27.4981C25.551 27.1088 25.6419 26.7502 25.797 26.4323C28.5061 20.8723 26.7491 17.1296 24.8891 13.1669ZM18.678 28.7411C17.3356 29.3097 16.0588 29.4998 14.9526 29.4998C12.7989 29.4998 11.2907 28.7801 11.1967 28.7342C11.0445 28.6597 10.9815 28.4758 11.0557 28.3235C11.13 28.1712 11.3144 28.1076 11.4665 28.1818C11.4991 28.1976 14.7484 29.738 18.4379 28.1752C18.5942 28.1085 18.7746 28.1823 18.8406 28.3383C18.9071 28.4946 18.8344 28.6748 18.678 28.7411ZM25.2392 23.5399C25.1804 23.6311 25.0815 23.6809 24.9805 23.6809C24.9234 23.6809 24.8658 23.6652 24.8144 23.632C24.6717 23.5402 24.6302 23.3501 24.722 23.2072C25.5115 21.9791 24.9544 19.2222 24.9488 19.1945C24.9145 19.0281 25.0211 18.8658 25.1875 18.8312C25.3534 18.7962 25.5162 18.9036 25.5507 19.07C25.5761 19.1933 26.1642 22.1008 25.2392 23.5399Z" fill="white"/>
</svg>
